<?xml version="1.0" encoding="UTF-8" standalone="no"?>
<svg
   viewBox="0 0 115.03637 37.705787"
   version="1.1"
   aria-hidden="true"
   role="img"
   class="default-ltr-cache-mv4tc2"
   id="svg6"
   width="115.03637"
   height="37.705788"
   xmlns="http://www.w3.org/2000/svg"
   xmlns:svg="http://www.w3.org/2000/svg">
  <defs
     id="defs10" />
  <g
     id="g4"
     transform="translate(2.00042,3.1190083)"
     style="mix-blend-mode:normal;fill:#e50914;fill-opacity:1">
    <path
       d="M 105.06233,14.280626 110.99916,30 c -1.74993,-0.250258 -3.49893,-0.563314 -5.28072,-0.844503 l -3.34427,-8.68685 -3.437063,7.968882 c -1.68713,-0.281188 -3.344268,-0.375855 -5.031399,-0.594245 L 99.937201,14.093167 94.468085,0 h 5.063267 L 102.5935,7.874215 105.87497,0 h 5.12419 z M 90.468648,0 h -4.593683 v 27.249977 c 1.499672,0.09373 3.062142,0.15559 4.593683,0.343049 z M 81.905521,26.93692 C 77.718624,26.655732 73.53079,26.406411 69.250164,26.311744 V 0 h 4.686475 v 21.87459 c 2.688162,0.0628 5.375387,0.281188 7.968882,0.405849 z M 64.249695,10.656107 v 4.687412 H 57.844222 V 25.999625 H 53.218671 V 0 h 13.124941 v 4.6874121 h -8.49939 V 10.656107 Z M 45.343519,4.6874121 V 26.249883 c -1.562471,0 -3.155873,0 -4.687413,0.06186 V 4.6874121 h -4.84394 V 0 H 50.21839 V 4.6874121 Z M 30.749836,15.592839 c -2.062049,0 -4.499953,0 -6.249883,0.09467 v 6.968788 C 27.249977,22.467898 30,22.249508 32.780954,22.155778 v 4.499954 L 19.812541,27.687693 V 0 h 12.968413 v 4.6874121 h -8.281001 v 6.3117439 c 1.812729,0 4.593683,-0.09373 6.249883,-0.09373 z M 4.7811416,12.968413 V 29.342956 C 3.0940107,29.531352 1.5934014,29.749742 0,30 V 0 H 4.4690224 L 10.562377,17.031587 V 0 h 4.687412 v 28.061674 c -1.6562,0.282126 -3.343331,0.375855 -5.125129,0.625176 z"
       id="path2"
       style="fill:#e50914;fill-opacity:1" />
  </g>
</svg>
